# xmcd
#
# Track frame offsets:
#	150
#	13946
#	29656
#	39518
#	54412
#	66553
#	79674
#	95143
#	104100
#	120751
#	128085
#	150462
#	160138
#	170795
#	187195
#	198397
#	210923
#
# Disc length: 2954 seconds
#
# Revision: 1
# Processed by: cddbd v1.5.2PL0 Copyright (c) Steve Scherf et al.
# Submitted via: audiograbber 1.83.01
#
DISCID=ef0b8811
DTITLE=Tami Neilson - The Kitchen Table sessions
DYEAR=2010
DGENRE=Country
TTITLE0=Cry Myself To Sleep
TTITLE1=Slice Of Heaven
TTITLE2=Cookin'
TTITLE3=Dream
TTITLE4=Hold On I'm Coming
TTITLE5=Everyday In Love
TTITLE6=Full Of Moon
TTITLE7=Salty Dog Blues
TTITLE8=I Fall To Pieces
TTITLE9=Daughter
TTITLE10=Girl On The Moon
TTITLE11=Copper Cliff Kicker
TTITLE12=South Of Blue
TTITLE13=My Name
TTITLE14=Six Months Married
TTITLE15=Good Night
TTITLE16=Unknown
EXTD=
EXTT0=
EXTT1=
EXTT2=
EXTT3=
EXTT4=
EXTT5=
EXTT6=
EXTT7=
EXTT8=
EXTT9=
EXTT10=
EXTT11=
EXTT12=
EXTT13=
EXTT14=
EXTT15=
EXTT16=
PLAYORDER=
